<svg width="247" height="50" viewBox="0 0 247 50" fill="none" xmlns="http://www.w3.org/2000/svg">
<g id="inspigo logo">
<g id="Group 3">
<mask id="mask0" mask-type="alpha" maskUnits="userSpaceOnUse" x="14" y="0" width="14" height="50">
<path id="Clip 2" fill-rule="evenodd" clip-rule="evenodd" d="M14.6431 0H27.813V50H14.6431V0Z" fill="white"/>
</mask>
<g mask="url(#mask0)">
<path id="Fill 1" fill-rule="evenodd" clip-rule="evenodd" d="M16.988 0V7.05104C20.8709 6.25247 18.7958 3.18719 19.4159 1.25792C22.3835 1.32505 21.4647 3.68187 21.6831 5.54755C22.5145 5.25957 23.2131 5.01753 24.0585 4.72425C23.7598 4.26666 23.5642 3.96455 23.3633 3.65714C24.7764 2.94338 25.6113 3.3727 26.1266 4.79315C26.4514 5.69065 27.0121 6.49982 27.3632 7.39025C28.4025 10.0174 27.6584 11.8036 24.9476 12.5085C22.6664 13.1021 20.2822 13.2894 17.8299 13.6745V15.9236C21.0979 15.36 24.2751 14.8141 27.7282 14.2187C27.7282 15.6109 27.8226 16.9147 27.6793 18.1921C27.6287 18.6426 27.0698 19.268 26.6226 19.404C23.8087 20.2609 20.9634 20.9994 17.8701 21.8492V23.6831C21.1067 23.1319 24.317 22.5842 27.7317 22.0029C27.7317 23.464 27.8278 24.7272 27.6846 25.9604C27.6322 26.4144 27.089 27.0452 26.6453 27.1777C23.8419 28.031 21.0019 28.7695 18.0884 29.5663C18.2474 31.4267 18.7766 31.7394 20.9861 31.1228C23.0909 30.5362 25.2323 30.0875 27.344 29.5804C28.2435 32.8206 27.0558 35.3259 24.2332 36.0661C22.2385 36.5891 20.1443 36.7233 18.0972 37.0308C18.4116 38.6314 19.2517 39.2692 20.9163 38.8558C22.2961 38.5148 23.6201 37.9406 24.979 37.506C27.0942 36.8294 27.868 37.4583 27.709 39.725C27.5466 42.066 26.4951 43.9899 24.8393 45.5712C22.0603 48.2248 18.726 49.6011 14.644 50.0004V47.746C14.644 33.4743 14.6388 19.2026 14.6528 4.93096C14.6545 3.28789 14.7768 1.64306 14.8431 0H16.988Z" fill="#040808"/>
</g>
</g>
<path id="Fill 4" fill-rule="evenodd" clip-rule="evenodd" d="M63.5322 27.8922C63.5322 22.5108 63.5322 17.5537 63.5304 12.5982C63.5304 12.3598 63.4951 12.1215 63.4827 11.8831C63.255 7.35359 63.8835 6.64893 68.3588 6.54726C69.8012 6.51396 71.247 6.51396 72.6841 6.61387C73.874 6.69626 74.5342 7.43247 74.5236 8.64197C74.4159 20.0463 74.3065 31.4523 74.167 42.8566C74.16 43.6086 73.904 44.3571 73.738 45.2511C70.0413 45.2511 66.438 45.3037 62.8419 45.195C62.307 45.1792 61.6326 44.5131 61.2901 43.9785C57.8546 38.5743 54.4933 33.1246 51.0701 27.7117C50.0727 26.1323 48.9516 24.6266 47.8889 23.0858C47.7317 23.1577 47.5729 23.2278 47.4157 23.2979C47.4157 27.6328 47.4087 31.9659 47.4175 36.2991C47.4228 38.2693 47.5587 40.2466 47.451 42.2098C47.3204 44.5534 46.5083 45.2195 44.1532 45.2669C42.7709 45.2949 41.3851 45.3755 40.0045 45.3265C37.7836 45.2493 37.2734 44.7147 37.2699 42.4868C37.2576 31.9677 37.2628 21.4503 37.2628 10.9312V6.66821C41.1132 6.66821 44.8418 6.42631 48.505 6.80494C49.7355 6.92939 51.0913 8.44564 51.8858 9.65163C55.4766 15.1014 58.8803 20.6668 62.3582 26.1866C62.6636 26.6722 63.0061 27.1315 63.5322 27.8922Z" fill="#040808"/>
<path id="Fill 6" fill-rule="evenodd" clip-rule="evenodd" d="M235.026 24.6492L235.389 24.5111C234.824 22.6151 234.691 20.4325 233.604 18.8842C230.934 15.0711 226.835 14.2918 222.387 15.0764C218.429 15.7736 215.521 18.7007 214.727 22.5609C213.961 26.2674 215.143 29.5072 217.357 32.4256C218.679 34.1661 220.52 35.3072 222.812 35.2705C224.872 35.2373 226.966 35.1027 228.98 34.7026C232.159 34.0717 234.13 32.1075 234.594 28.9009C234.797 27.4906 234.886 26.0664 235.026 24.6492ZM225.035 4.97461C237.099 5.19829 244.415 11.3338 246.511 22.149C248.711 33.5008 240.292 43.8844 228.463 45.1566C222.489 45.7997 216.887 44.8141 211.868 41.4764C204.943 36.8717 201.985 28.6759 204.02 19.9891C205.82 12.3071 212.065 6.78152 220.493 5.46391C221.994 5.22974 223.52 5.13538 225.035 4.97461Z" fill="#040808"/>
<path id="Fill 8" fill-rule="evenodd" clip-rule="evenodd" d="M189.658 30.9459C187.622 30.673 185.749 30.4805 183.907 30.1289C183.477 30.0467 182.859 29.4431 182.831 29.046C182.695 27.1478 182.643 25.2322 182.734 23.3323C182.813 21.7193 183.647 20.6557 185.493 20.6364C189.214 20.5997 192.937 20.4527 196.656 20.5017C199.49 20.5384 200.16 21.3222 200.189 24.1091C200.23 28.4004 200.301 32.6953 200.28 36.9867C200.257 41.2974 199.406 42.3698 195.168 43.6241C189.601 45.2703 183.944 45.8459 178.173 44.854C167.111 42.9541 160.439 34.2926 161.6 23.3463C162.719 12.7797 169.944 5.95331 180.916 5.10308C184.6 4.81618 188.27 4.93864 191.755 6.21048C193.556 6.86827 195.316 7.78498 196.878 8.88014C198.941 10.3252 198.871 11.3853 197.159 13.2765C196.049 14.5046 195.068 15.8447 193.973 17.0868C193.742 17.3492 193.229 17.5784 192.904 17.5171C191.85 17.316 190.802 17.0291 189.787 16.6774C187.905 16.0249 186.104 15.0242 184.174 14.6656C179.597 13.8153 175.471 16.1596 173.727 20.3722C172.307 23.7924 172.307 27.2476 173.905 30.6117C175.305 33.5613 177.69 35.246 181.078 35.33C183.028 35.379 184.981 35.2548 186.933 35.2513C188.331 35.2495 189.067 34.6705 189.162 33.2534C189.212 32.4941 189.477 31.7471 189.658 30.9459Z" fill="#040808"/>
<path id="Fill 10" fill-rule="evenodd" clip-rule="evenodd" d="M122.527 22.3557C124.755 22.0459 126.842 21.8919 128.859 21.4282C130.187 21.1237 130.848 19.9984 130.652 18.5406C130.464 17.1476 129.68 16.1273 128.31 16.0153C126.41 15.8595 124.488 15.975 122.527 15.975V22.3557ZM122.586 31.4675C122.586 34.4513 122.577 37.2986 122.588 40.1459C122.605 44.8273 122.278 45.1773 117.689 45.3208C117.513 45.326 117.336 45.3331 117.161 45.3366C112.516 45.4153 111.787 44.6838 111.787 39.9289C111.787 30.4419 111.784 20.9567 111.79 11.4697C111.794 6.67811 111.809 6.60986 116.49 6.58011C121.179 6.55036 125.892 6.38936 130.543 6.83387C132.876 7.05612 135.272 8.1989 137.322 9.46068C140.088 11.1652 141.339 13.9338 141.284 17.3499C141.141 26.5918 137.781 30.3282 128.689 31.093C126.661 31.2645 124.626 31.345 122.586 31.4675Z" fill="#040808"/>
<path id="Fill 12" fill-rule="evenodd" clip-rule="evenodd" d="M106.245 8.04337C106.368 10.2123 105.388 11.6461 104.211 13.164C102.057 15.9437 99.8103 16.9035 96.528 15.0311C94.9326 14.1221 93.0106 14.1116 91.3548 15.44C90.4491 16.1683 90.1587 17.0123 90.9607 17.8564C91.6676 18.6005 92.5336 19.3077 93.4669 19.6815C95.102 20.3325 96.8633 20.6484 98.533 21.224C103.241 22.8524 106.472 25.8708 107.054 31.1335C107.597 36.0488 105.149 40.7062 100.505 43.0541C94.3657 46.1584 88.1554 46.1549 82.0696 42.7277C81.7118 42.5259 81.3782 42.268 81.0567 42.0083C78.7251 40.1429 78.6179 39.297 80.4604 36.9069C81.5493 35.4961 82.6452 34.0834 83.8309 32.7603C84.1195 32.4391 84.8247 32.2742 85.262 32.3742C85.9914 32.5392 86.79 32.8322 87.331 33.3288C89.7473 35.5592 92.5007 35.3381 95.3043 34.5379C95.7813 34.401 96.3413 33.6816 96.4156 33.1639C96.5401 32.3198 96.8063 31.3441 95.4218 30.8966C92.6234 29.9911 89.8614 28.9365 87.1564 27.773C81.259 25.2373 79.0206 21.4503 79.8174 15.6348C80.5468 10.3071 84.8109 5.77436 90.2399 5.19176C93.543 4.83728 96.9687 4.92327 100.256 5.40234C102.308 5.70066 104.202 7.10102 106.245 8.04337Z" fill="#040808"/>
<path id="Fill 14" fill-rule="evenodd" clip-rule="evenodd" d="M156.807 26.1613C156.807 31.6608 156.819 37.1585 156.801 42.658C156.794 44.9167 156.459 45.2569 154.183 45.3008C152.441 45.3341 150.688 45.399 148.962 45.2359C146.818 45.036 145.966 44.0592 145.962 41.9425C145.941 31.0049 145.962 20.0655 145.943 9.12793C145.939 7.42863 146.612 6.57459 148.399 6.6044C150.322 6.63772 152.249 6.47814 154.171 6.54303C156.272 6.61317 156.793 7.2024 156.8 9.30505C156.819 14.9238 156.807 20.5425 156.807 26.1613Z" fill="#040808"/>
<path id="Fill 16" fill-rule="evenodd" clip-rule="evenodd" d="M12.4191 14.8887C12.4536 17.1368 11.9435 17.7137 9.36423 17.2448C6.75408 16.7693 4.17479 16.0184 1.71166 15.1079C0.925714 14.8178 0.559059 13.6333 0 12.8581C0.980168 12.8324 2.00571 12.6325 2.93506 12.813C6.04255 13.4157 9.11919 14.1538 12.4191 14.8887Z" fill="#040808"/>
<path id="Fill 18" fill-rule="evenodd" clip-rule="evenodd" d="M12.4156 38.9439C5.34855 39.6832 0.624569 38.2451 0 34.4736C1.32676 34.6833 2.49106 34.8344 3.6373 35.0586C5.58141 35.4372 7.50205 36.1295 9.45518 36.201C12.0455 36.2968 12.4751 36.4756 12.4156 38.9439Z" fill="#040808"/>
<path id="Fill 20" fill-rule="evenodd" clip-rule="evenodd" d="M0 26.7114C1.3413 26.863 2.38882 26.8551 3.35239 27.1126C6.22736 27.8833 9.06736 28.7583 12.2046 29.6759C12.6418 31.1384 12.5649 31.4116 10.5433 31.3642C8.31364 31.3121 6.04374 31.0894 3.88401 30.6061C2.04256 30.1939 0.701256 28.9857 0 26.7114Z" fill="#040808"/>
<g id="Group 24">
<mask id="mask1" mask-type="alpha" maskUnits="userSpaceOnUse" x="0" y="19" width="13" height="7">
<path id="Clip 23" fill-rule="evenodd" clip-rule="evenodd" d="M0 19.5303H12.3986V25.6306H0V19.5303Z" fill="white"/>
</mask>
<g mask="url(#mask1)">
<path id="Fill 22" fill-rule="evenodd" clip-rule="evenodd" d="M0.393425 19.5303C4.35207 20.5472 8.31249 21.5642 12.3332 22.5986C12.6207 24.9682 11.9926 25.9813 9.8083 25.5233C7.3011 24.9993 4.82051 24.091 2.473 22.9867C1.46338 22.5112 0.812179 21.1217 -0.000488281 20.1455C0.13259 19.9417 0.263895 19.736 0.393425 19.5303Z" fill="#040808"/>
</g>
</g>
<path id="Fill 25" fill-rule="evenodd" clip-rule="evenodd" d="M11.9434 8.08031C9.28707 7.19277 9.22371 6.85287 9.35369 2.61776C9.42517 0.315666 11.2887 1.57401 12.4211 0.317383C12.2456 3.18771 12.1026 5.51041 11.9434 8.08031Z" fill="#040808"/>
<path id="Fill 27" fill-rule="evenodd" clip-rule="evenodd" d="M7.76288 1.86938V6.5269C6.42634 5.7198 4.75466 5.22964 4.6784 4.56231C4.47772 2.81033 5.75406 1.85167 7.76288 1.86938Z" fill="#040808"/>
</g>
</svg>
