<svg width="183" height="46" viewBox="0 0 183 46" fill="none" xmlns="http://www.w3.org/2000/svg">
<path d="M95.7127 43.444C95.7271 43.1602 95.7441 42.7074 95.7589 42.0887V30.1828L95.7199 29.0279C95.7105 28.7831 95.6988 28.6163 95.6863 28.5276C95.6737 28.4343 95.654 28.355 95.6276 28.2828C95.537 27.9896 95.3397 27.782 95.0434 27.656C94.769 27.5408 94.3628 27.4852 93.8369 27.4816V27.0777L100.635 27.0754C101.625 27.0795 102.517 27.1427 103.313 27.2722C104.11 27.3982 104.752 27.5744 105.243 27.799C106.664 28.4733 107.366 29.6085 107.358 31.2207C107.376 33.5291 105.858 35.001 102.717 35.3812L102.19 35.4664C102.896 35.4924 103.851 35.726 104.296 35.83C104.737 35.9318 105.169 36.0932 105.594 36.3137C107.26 37.1517 108.082 38.4899 108.065 40.3442C108.073 42.5931 106.977 44.0537 104.751 44.7451C104.266 44.8845 103.655 44.9934 102.918 45.0737C102.178 45.1535 101.377 45.1938 100.509 45.1956H93.8369V44.7899C94.6233 44.78 95.1635 44.6599 95.4029 44.3783C95.502 44.2837 95.5733 44.1779 95.6199 44.0573C95.6679 43.9354 95.697 43.7256 95.7127 43.444ZM97.8055 27.6336V35.1884H100.459C103.544 35.17 105.142 33.8892 105.158 31.3229C105.18 28.8311 103.497 27.6152 100.231 27.6336H97.8055ZM105.69 40.1402C105.672 38.381 105.036 37.1351 103.766 36.4379C103.381 36.2429 102.891 36.0914 102.302 35.9833C101.715 35.8762 101.066 35.8224 100.357 35.8206H97.8055V44.6397H100.357C102.206 44.6473 103.558 44.3021 104.391 43.5794C104.812 43.2306 105.132 42.7616 105.355 42.1698C105.576 41.5789 105.686 40.9002 105.69 40.1402Z" fill="white"/>
<path d="M117.796 44.6787C117.658 44.4061 117.561 44.0815 117.52 43.2508L117.507 43.0064L117.344 43.192C117.149 43.4086 116.958 43.6014 116.773 43.7628C116.585 43.9255 116.367 44.0927 116.123 44.2613C115.586 44.6563 115.069 44.9342 114.574 45.0956C114.077 45.257 113.519 45.3351 112.896 45.3292C111.812 45.3351 110.979 45.0773 110.384 44.5711C110.053 44.2725 109.79 43.8964 109.598 43.44C109.409 42.984 109.311 42.4949 109.307 41.9681C109.319 40.029 110.509 38.7795 112.944 38.225C113.588 38.0752 114.268 37.9524 114.984 37.8578C115.701 37.7614 116.516 37.682 117.425 37.6206L117.52 35.93C117.52 35.3516 117.493 34.8822 117.437 34.5262C117.38 34.1653 117.286 33.8501 117.155 33.5847C116.794 32.8804 116.057 32.5433 114.993 32.5433C113.286 32.5334 112.361 33.3476 112.264 34.962C112.255 35.2198 112.231 35.4018 112.197 35.509C112.164 35.613 112.108 35.6888 112.031 35.7443C111.86 35.8596 111.589 35.9246 111.202 35.93C110.364 35.9412 110.051 35.6928 110.065 35.2736C110.07 34.836 110.216 34.4119 110.507 34.0035C110.8 33.5937 111.207 33.2364 111.732 32.9342C112.678 32.4097 113.888 32.1424 115.372 32.1366C116.997 32.1424 118.086 32.5092 118.682 33.214C118.923 33.509 119.101 33.8757 119.216 34.3191C119.333 34.7603 119.392 35.322 119.391 36.0039L119.389 36.1469L119.376 36.8087L119.34 38.5554L119.315 40.9557L119.29 42.1183C119.292 42.6652 119.315 43.0822 119.354 43.5493C119.39 44.0035 119.553 44.5115 119.917 44.6451C120.295 44.7858 120.661 44.8414 121.355 44.8455C121.866 44.8365 122.258 44.7769 122.525 44.6639C122.828 44.5361 123.015 44.2613 123.096 43.8721C123.174 43.4938 123.208 42.9154 123.2 42.1425V35.3664C123.217 34.4433 123.11 33.7945 122.848 33.4552C122.59 33.1247 122.112 32.9822 121.456 32.9898V32.628L125.071 32.3666V35.2458L125.259 34.9087C125.794 33.9573 126.401 33.2826 127.078 32.8786C127.753 32.4742 128.599 32.272 129.619 32.2837C131.153 32.2613 132.219 32.7746 132.844 33.8017C133.074 34.1465 133.24 34.5599 133.339 35.0458C133.438 35.5314 133.49 36.151 133.486 36.9069V42.1425C133.477 42.923 133.509 43.505 133.584 43.8834C133.662 44.2725 133.846 44.5451 134.15 44.6693C134.403 44.7751 134.991 44.8307 135.491 44.8432C135.961 44.8307 136.323 44.7711 136.572 44.6639C136.867 44.5339 137.047 44.2595 137.123 43.8721C137.196 43.4924 137.229 42.9154 137.219 42.1425V29.8326C137.229 29.1265 137.199 28.6038 137.129 28.2662C137.055 27.9133 136.873 27.6726 136.576 27.5668C136.319 27.4762 135.932 27.4336 135.425 27.4314V27.0723L139.185 26.8795C139.138 27.7152 139.102 28.5679 139.077 29.4412C139.053 30.3514 139.04 31.1467 139.04 31.8273V40.0972L143.182 35.5592C143.768 34.9104 144.089 34.3653 144.094 33.9282C144.123 33.3198 143.51 33.0454 142.501 32.9952V32.6356H147.884V33.0006C147.561 33.0378 147.28 33.0974 147.04 33.179C146.78 33.2678 146.513 33.3955 146.241 33.5605C145.964 33.7273 145.732 33.8815 145.545 34.0205C145.354 34.1631 145.128 34.3671 144.87 34.6302C144.611 34.8939 144.235 35.292 143.742 35.8282L142.375 37.3001L145.953 42.9307C146.362 43.5978 146.738 44.0685 147.083 44.3353C147.412 44.5917 147.833 44.7563 148.339 44.8343V45.2015H145.066C144.976 45.0199 144.852 44.7823 144.694 44.4913L144.174 43.5404L143.775 42.8244L141.127 38.5088L139.045 40.8392L139.04 42.1425C139.03 42.9154 139.062 43.4938 139.138 43.8721C139.214 44.2613 139.396 44.5339 139.697 44.6639C139.96 44.7769 140.35 44.8365 140.858 44.8455V45.2015H129.796V44.8455C130.545 44.8249 131.06 44.7029 131.266 44.4281C131.348 44.3227 131.411 44.2021 131.456 44.0667C131.499 43.9313 131.526 43.7551 131.539 43.5404C131.554 43.3714 131.569 43.1266 131.586 42.806C131.604 42.4837 131.613 42.2626 131.615 42.1443V37.0589C131.62 35.8058 131.486 34.8773 131.202 34.2873C130.77 33.3588 129.991 32.8934 128.887 32.8894C127.655 32.8858 126.674 33.4718 125.946 34.6302C125.672 35.0678 125.459 35.5668 125.304 36.1227C125.152 36.6787 125.073 37.2279 125.071 37.7654V42.1425C125.062 42.923 125.094 43.505 125.169 43.8834C125.247 44.2725 125.43 44.5451 125.736 44.6693C126.002 44.7805 126.398 44.8365 126.916 44.8455V45.2015H121.474C120.992 45.218 120.072 45.2422 119.617 45.2364C119.138 45.2292 118.908 45.179 118.473 45.1459C118.086 45.0324 117.924 44.9325 117.796 44.6787ZM111.38 41.8919C111.389 42.7172 111.589 43.3862 111.99 43.8905C112.391 44.3985 112.933 44.6599 113.602 44.6711C114.279 44.6621 114.92 44.4855 115.517 44.1447C116.114 43.8018 116.585 43.3436 116.925 42.7764C117.133 42.4146 117.284 41.9497 117.379 41.3839C117.473 40.8239 117.52 40.1254 117.52 39.2893V37.9914C116.308 38.0972 115.441 38.212 114.812 38.3456C114.177 38.4792 113.617 38.6702 113.128 38.9221C111.971 39.4969 111.389 40.4944 111.38 41.8919Z" fill="white"/>
<path d="M4.92806 37.5689V42.076C4.91864 42.7987 4.96034 43.3362 5.05225 43.6868C5.1455 44.037 5.34546 44.2688 5.65525 44.3818C5.96371 44.4947 6.43939 44.5602 7.07915 44.571V45.2013H0V44.571C0.602558 44.5602 1.04865 44.4947 1.33961 44.3818C1.62879 44.2688 1.81574 44.037 1.90137 43.6868C1.98611 43.3362 2.02511 42.7987 2.01615 42.076V30.2257C2.02422 29.5025 1.98701 28.965 1.90496 28.6144C1.82247 28.262 1.64179 28.0289 1.36562 27.9118C1.08855 27.7948 0.663082 27.7267 0.0892177 27.7061V27.0757H6.83212C9.10517 27.0663 10.7707 27.4671 11.8279 28.2786C12.8855 29.091 13.4082 30.3683 13.3957 32.1168C13.4038 34.5709 12.4475 36.1782 10.5282 36.9386C10.0278 37.1331 9.38941 37.2869 8.61424 37.3981C7.83728 37.5093 6.97469 37.5671 6.02558 37.5689H4.92806ZM4.92806 36.8664H6.09372C7.49386 36.8605 8.52368 36.531 9.18497 35.8724C9.54408 35.4922 9.81622 34.9919 10.0027 34.3745C10.1874 33.759 10.2816 33.0547 10.2825 32.2611C10.2753 29.2766 8.96753 27.7823 6.36272 27.7782H4.92806V36.8664Z" fill="white"/>
<path d="M24.7925 38.3289H16.5566C16.5647 39.2076 16.6163 39.9451 16.7104 40.5405C16.8041 41.1341 16.9552 41.677 17.1623 42.1698C17.8465 43.7645 18.9032 44.5616 20.3334 44.5616C21.1431 44.5562 21.877 44.3186 22.5365 43.8461C23.1946 43.3735 23.743 42.693 24.1792 41.8089L24.7625 42.1944C24.189 43.3363 23.4883 44.1742 22.6611 44.71C21.834 45.244 20.8252 45.5094 19.6331 45.5036C17.7586 45.4793 16.0339 44.8804 14.9543 43.7071C13.8738 42.5334 13.3233 40.9243 13.3018 38.8848C13.3233 36.8288 13.8559 35.2031 14.8992 34.0052C15.9415 32.8081 17.6062 32.1962 19.4004 32.1702C20.5934 32.1724 21.7456 32.4446 22.5634 32.9861C23.3811 33.5255 23.9842 34.3172 24.3729 35.3592C24.4997 35.7039 24.5966 36.0985 24.6616 36.5454C24.727 36.9906 24.771 37.5856 24.7925 38.3289ZM16.5795 37.63H21.7317C21.7107 36.8844 21.6712 36.2836 21.612 35.8299C21.5542 35.3735 21.4609 34.9678 21.3359 34.61C20.9001 33.3421 20.2321 32.7136 19.3309 32.7243C18.3199 32.7342 17.5663 33.4421 17.0691 34.8507C16.9418 35.2161 16.8404 35.6165 16.7624 36.0505C16.6853 36.4845 16.6239 37.0108 16.5795 37.63Z" fill="white"/>
<path d="M25.3194 32.515L29.8879 32.1999C29.9125 32.6558 29.9305 33.0378 29.943 33.3471C29.9556 33.6592 29.9614 33.9313 29.9614 34.1685V34.897C30.954 33.0826 32.1528 32.1667 33.5575 32.1514C34.165 32.1631 34.6586 32.3406 35.037 32.6818C35.4162 33.0248 35.6117 33.4641 35.6229 33.9986C35.6144 34.4433 35.4503 34.7993 35.1311 35.0678C34.8123 35.3346 34.3927 35.474 33.874 35.4794C33.2499 35.4996 32.8693 35.2422 32.7316 34.7029C32.6415 34.3689 32.5487 34.1429 32.4519 34.0223C32.3559 33.9017 32.2147 33.8461 32.0264 33.8515H31.9784C31.5001 33.8923 31.0468 34.2725 30.6169 34.9956C30.4232 35.3552 30.2775 35.752 30.1802 36.1873C30.0829 36.6231 30.0345 37.1257 30.0345 37.6933V42.1887C30.0246 42.9065 30.06 43.4341 30.1389 43.7758C30.2174 44.1147 30.3967 44.3371 30.6747 44.4429C30.954 44.5469 31.3875 44.6061 31.9784 44.6191V45.2015H25.2225V44.6191C25.7731 44.6209 26.1815 44.5675 26.446 44.4581C26.7119 44.3487 26.8836 44.1205 26.9625 43.7758C27.0423 43.427 27.0773 42.8988 27.0701 42.1887V35.4556C27.0916 34.4541 26.9921 33.8035 26.7688 33.5032C26.5456 33.2028 26.0627 33.0674 25.3194 33.0992V32.515Z" fill="white"/>
<path d="M41.0508 32.1999L41.0755 34.606C42.0595 32.9862 43.4691 32.1685 45.3041 32.1519C47.1701 32.1407 48.3209 32.9898 48.7545 34.7047C49.2817 33.8201 49.8852 33.1732 50.5617 32.7634C51.2382 32.35 52.0291 32.1461 52.9338 32.1519C54.364 32.1591 55.4171 32.6303 56.0937 33.5605C56.3573 33.9147 56.5465 34.3447 56.6581 34.8549C56.7711 35.366 56.8258 36.0282 56.8227 36.8419V42.1887C56.8141 42.8988 56.85 43.427 56.9289 43.7735C57.0078 44.1205 57.1809 44.3487 57.4449 44.4581C57.7112 44.5675 58.1192 44.6209 58.6698 44.6173V45.2015H52.0833V44.6173C52.6101 44.6209 53.0011 44.5675 53.2562 44.4581C53.5117 44.3487 53.6781 44.1205 53.7534 43.7735C53.8314 43.427 53.8655 42.8988 53.8583 42.1887V36.8661C53.8641 35.5892 53.7063 34.6675 53.3875 34.1021C53.0679 33.535 52.5523 33.2584 51.8403 33.2696C50.9858 33.253 50.2645 33.6982 49.678 34.606C49.1723 35.3628 48.9204 36.1824 48.9244 37.0611V42.1887C48.9168 42.8988 48.9513 43.427 49.0284 43.7735C49.1064 44.1205 49.2745 44.3487 49.5328 44.4581C49.7919 44.5675 50.1878 44.6209 50.7231 44.6173V45.2015H44.2097V44.6173C44.7361 44.6209 45.1275 44.5675 45.383 44.4581C45.6381 44.3487 45.804 44.1205 45.8798 43.7735C45.9569 43.427 45.9923 42.8988 45.9833 42.1887V36.8419C45.9959 34.4357 45.34 33.2454 44.0152 33.2696C43.1911 33.2992 42.4998 33.6906 41.9439 34.4415C41.3866 35.1943 41.097 36.1322 41.0755 37.2552V42.1887C41.0678 42.9065 41.1019 43.44 41.179 43.7852C41.2557 44.1313 41.4211 44.3577 41.6767 44.4635C41.9318 44.5693 42.3223 44.6209 42.8495 44.6173V45.2015H36.2631V44.6173C36.8145 44.6209 37.2211 44.5693 37.4875 44.4635C37.7524 44.3577 37.925 44.1313 38.0039 43.7852C38.0833 43.44 38.1187 42.9065 38.1097 42.1887V35.4332C38.1362 34.4433 38.0362 33.8035 37.812 33.5108C37.5888 33.2162 37.0889 33.0808 36.3124 33.0992V32.515L41.0508 32.1999Z" fill="white"/>
<path d="M75.9476 33.3123V41.4289C75.9467 41.957 75.9664 42.3946 76.0054 42.7411C76.0444 43.0877 76.1063 43.3787 76.1906 43.6158C76.2932 43.8871 76.4524 44.1036 76.6667 44.2672C76.8823 44.4282 77.1209 44.5111 77.3804 44.5152C77.9001 44.508 78.4667 44.2556 79.0828 43.7629L79.4226 44.3686C78.4466 45.1881 77.3374 45.5925 76.0937 45.5849C74.7523 45.5647 73.8373 45.1177 73.3468 44.2484C73.2509 44.0556 73.176 43.8368 73.1226 43.5885C73.0706 43.3419 73.033 43.0101 73.0123 42.5891C72.9917 42.17 72.9814 41.6046 72.9823 40.8944V33.3123H71.5974V32.5837C72.1273 32.5631 72.5752 32.4519 72.9433 32.2497C73.3118 32.0462 73.6324 31.7292 73.9068 31.2952C74.1215 30.9653 74.2991 30.5981 74.4376 30.1959C74.577 29.7933 74.6994 29.293 74.8057 28.694L76.0211 28.5738C76.0045 28.8944 75.9902 29.2208 75.9799 29.5526C75.9695 29.8825 75.961 30.2811 75.9561 30.746C75.9503 31.2114 75.9476 31.8086 75.9476 32.5335H78.8886V33.3123H75.9476Z" fill="white"/>
<path d="M71.5853 44.6879V45.2017C70.8747 45.2479 70.5873 45.2479 69.8399 45.2479C69.2468 45.2479 68.6326 45.2385 68.1228 45.0475C67.8076 44.9287 67.6319 44.8269 67.3965 44.5803C67.2324 44.3189 67.128 44.3041 67.0755 43.5792C66.4483 44.2575 65.7951 44.7543 65.1168 45.0753C64.4366 45.394 63.705 45.5518 62.9204 45.5482C61.7538 45.5352 60.8415 45.2142 60.1824 44.5821C59.5238 43.9499 59.1898 43.0806 59.1773 41.9755C59.1732 39.8899 60.4693 38.5937 63.0652 38.0876C64.2362 37.8603 65.5642 37.706 67.0513 37.6244V36.045C67.0634 34.7802 66.9294 33.9037 66.6505 33.4159C66.3703 32.9286 65.8722 32.695 65.1558 32.7174C64.394 32.7004 63.8516 32.9766 63.5274 33.5424C63.41 33.7387 63.3234 33.9611 63.2692 34.2153C63.2154 34.4673 63.1714 34.8174 63.1387 35.268C63.1194 35.702 62.9939 36.01 62.7617 36.1916C62.5299 36.3749 62.1614 36.4637 61.6561 36.4601C60.5299 36.4512 59.9632 36.0781 59.9551 35.342C59.9587 34.912 60.0919 34.5005 60.3537 34.1113C60.6146 33.7199 60.9845 33.3769 61.462 33.0806C62.4738 32.4579 63.8027 32.1499 65.4481 32.1575C67.1203 32.1499 68.3192 32.4816 69.0441 33.1546C69.371 33.4626 69.6108 33.8553 69.7642 34.3319C69.9179 34.8103 69.9933 35.4222 69.9915 36.1692L69.9668 38.2826L69.943 40.396C69.9233 41.0896 69.9143 41.5267 69.9188 41.7083C69.9099 42.5857 69.9377 43.225 70.0013 43.6276C70.0654 44.0315 70.1354 44.2095 70.3999 44.4283C70.8639 44.6937 71.262 44.6861 71.5853 44.6879ZM67.0513 40.0566V38.1862C65.3113 38.3032 64.0771 38.6256 63.3481 39.1501C62.6204 39.6765 62.2663 40.496 62.2882 41.6106C62.2954 42.4852 62.4747 43.1788 62.8262 43.6922C63.1764 44.2059 63.6538 44.4673 64.2564 44.4781C64.7509 44.4745 65.2073 44.3319 65.6265 44.0499C66.0452 43.7702 66.3739 43.377 66.6137 42.8748C66.7698 42.5673 66.8818 42.1925 66.9518 41.7473C67.0195 41.3025 67.0531 40.739 67.0513 40.0566Z" fill="white"/>
<path d="M92.5097 44.6878V45.2016C91.7986 45.2478 91.5117 45.2496 90.7639 45.2496C90.1707 45.2496 89.5579 45.2402 89.0468 45.0492C88.7316 44.9308 88.5563 44.8304 88.3214 44.5802C88.1568 44.3206 88.0519 44.3054 87.9999 43.5809C87.3722 44.2574 86.7195 44.756 86.0407 45.077C85.361 45.394 84.6289 45.5536 83.8443 45.55C82.6778 45.537 81.7659 45.2142 81.1064 44.5843C80.4482 43.9517 80.1142 43.0824 80.1012 41.9772C80.0976 39.8916 81.3937 38.5959 83.9896 38.0897C85.1606 37.8615 86.4886 37.7078 87.9753 37.6262V36.0467C87.9874 34.7824 87.8533 33.9055 87.5744 33.4159C87.2947 32.9285 86.7961 32.6968 86.0797 32.7192C85.318 32.7026 84.7755 32.9788 84.4514 33.5441C84.3339 33.7405 84.2474 33.9628 84.1936 34.217C84.1398 34.469 84.0954 34.8192 84.0636 35.2697C84.0438 35.7019 83.9179 36.0099 83.6856 36.1933C83.4543 36.3767 83.0857 36.4654 82.58 36.4618C81.4543 36.4529 80.8876 36.0803 80.8791 35.3442C80.8826 34.9138 81.0158 34.5022 81.2776 34.113C81.5386 33.7221 81.9089 33.3787 82.3863 33.0841C83.3982 32.4596 84.7271 32.1516 86.372 32.1592C88.0443 32.1516 89.2436 32.4833 89.9685 33.1563C90.2954 33.4643 90.5352 33.8575 90.6881 34.3336C90.8414 34.812 90.9177 35.424 90.9154 36.1691L90.8912 38.2843L90.8674 40.3977C90.8473 41.0913 90.8387 41.5284 90.8428 41.71C90.8343 42.587 90.8621 43.2267 90.9253 43.6293C90.9898 44.0333 91.0593 44.2117 91.3238 44.43C91.7879 44.6955 92.1864 44.686 92.5097 44.6878ZM87.9753 40.0588V38.1861C86.2353 38.3049 85.001 38.6273 84.272 39.1518C83.543 39.6786 83.1902 40.4977 83.2122 41.6123C83.2198 42.4874 83.3991 43.1805 83.7502 43.6939C84.1008 44.2077 84.5782 44.469 85.1804 44.4798C85.6753 44.4762 86.1317 44.3337 86.5505 44.0517C86.9692 43.7719 87.2983 43.3787 87.5372 42.8766C87.6941 42.5686 87.8062 42.1942 87.8753 41.749C87.9439 41.3043 87.9775 40.7407 87.9753 40.0588Z" fill="white"/>
<path d="M142.549 14.7988L142.501 15.7349L160.458 36.8015L161.104 36.9051L161.185 36.8643L161.5 36.2819L153.842 10.6481L152.542 9.77207L142.549 14.7988Z" fill="#0096B8"/>
<path d="M142.501 15.735L160.458 36.8012L161.102 36.9053L147.86 16.7581L142.501 15.735Z" fill="#005675"/>
<path d="M152.542 9.77183L147.964 15.1612L149.834 15.9785L153.842 10.6488V10.6479L152.542 9.77183Z" fill="#0BBBEF"/>
<path d="M142.501 15.735L147.86 16.7581L147.963 15.1611L142.548 14.8007L142.501 15.735Z" fill="#007290"/>
<path d="M149.832 15.9787L161.185 36.8642L161.5 36.2805L153.843 10.6498L149.832 15.9787Z" fill="#007290"/>
<path d="M171.367 9.26395L182.978 14.6022L183 16.1086L163.945 44.9731L163.075 45.2013L162.947 45.1435L162.675 44.4929L170.355 9.8266L171.367 9.26395Z" fill="#81B73E"/>
<path d="M175.264 16.7676L163.076 45.2012L163.944 44.9735L183 16.1085L175.264 16.7676Z" fill="#69931D"/>
<path d="M170.354 9.8274L162.674 44.4911L162.947 45.142L173.072 15.5607L170.354 9.8274Z" fill="#277933"/>
<path d="M174.826 14.7088L175.265 16.7684L183 16.1085L182.979 14.6034H182.978L174.826 14.7088Z" fill="#AECC53"/>
<path d="M170.355 9.82659L173.07 15.559L174.826 14.7089L171.367 9.26483L170.355 9.82659Z" fill="#69931D"/>
<path d="M153.63 1.05099L154.094 0.161057L168.958 0.00100136L169.919 0.997194L162.798 24.7937L162.345 25.0551L162.331 25.0533L161.844 24.7247L153.63 1.05099Z" fill="#E4032E"/>
<path d="M153.631 1.04928L159.39 3.91815L160.461 2.65117L154.092 0.16203L153.631 1.04928Z" fill="#B51227"/>
<path d="M153.63 1.05099L161.844 24.7247L162.329 25.0533L159.39 3.91717L153.63 1.05009V1.05099Z" fill="#791B15"/>
<path d="M162.185 3.92097L162.345 25.0549L162.798 24.7917L169.919 0.997398L162.185 3.92097Z" fill="#B51227"/>
<path d="M168.958 2.38419e-07L160.462 2.65188L162.185 3.92021L169.919 0.997538L168.958 2.38419e-07Z" fill="#EA5160"/>
</svg>
