<svg width="41" height="46" viewBox="0 0 41 46" fill="none" xmlns="http://www.w3.org/2000/svg">
<path d="M0.549436 14.7988L0.501465 15.7349L18.458 36.8015L19.1036 36.9051L19.1848 36.8643L19.5004 36.2819L11.8416 10.6481L10.5419 9.77206L0.549436 14.7988Z" fill="#0096B8"/>
<path d="M0.501221 15.735L18.4582 36.8012L19.1025 36.9053L5.86013 16.7581L0.501221 15.735Z" fill="#005675"/>
<path d="M10.5419 9.77183L5.96399 15.1612L7.83353 15.9785L11.8416 10.6488V10.6479L10.5419 9.77183Z" fill="#0BBBEF"/>
<path d="M0.501221 15.735L5.86013 16.7581L5.96324 15.1611L0.547847 14.8007L0.501221 15.735Z" fill="#007290"/>
<path d="M7.83179 15.9787L19.1849 36.8642L19.5001 36.2805L11.8426 10.6498L7.83179 15.9787Z" fill="#007290"/>
<path d="M29.3666 9.26395L40.9784 14.6022L41 16.1086L21.9445 44.9731L21.0752 45.2013L20.9465 45.1435L20.6753 44.4929L28.3552 9.8266L29.3666 9.26395Z" fill="#81B73E"/>
<path d="M33.2645 16.7676L21.0757 45.2012L21.9437 44.9735L41 16.1085L33.2645 16.7676Z" fill="#69931D"/>
<path d="M28.3542 9.8274L20.6743 44.4911L20.9465 45.142L31.072 15.5607L28.3542 9.8274Z" fill="#277933"/>
<path d="M32.8257 14.7088L33.265 16.7684L40.9997 16.1085L40.9786 14.6034H40.9777L32.8257 14.7088Z" fill="#AECC53"/>
<path d="M28.3551 9.82659L31.0702 15.559L32.8259 14.7089L29.3665 9.26483L28.3551 9.82659Z" fill="#69931D"/>
<path d="M11.6302 1.05099L12.0938 0.161056L26.9583 0.00100218L27.9195 0.997195L20.7977 24.7937L20.3454 25.0551L20.3315 25.0533L19.8437 24.7247L11.6302 1.05099Z" fill="#E4032E"/>
<path d="M11.6311 1.04928L17.3904 3.91815L18.4605 2.65117L12.0924 0.16203L11.6311 1.04928Z" fill="#B51227"/>
<path d="M11.6302 1.05099L19.8437 24.7247L20.3288 25.0533L17.3904 3.91717L11.6302 1.05009V1.05099Z" fill="#791B15"/>
<path d="M20.1849 3.92097L20.3454 25.0549L20.7978 24.7917L27.9187 0.997399L20.1849 3.92097Z" fill="#B51227"/>
<path d="M26.9585 -1.51238e-05L18.4622 2.65187L20.1851 3.9202L27.9188 0.997523L26.9585 -1.51238e-05Z" fill="#EA5160"/>
</svg>
