<svg width="24" height="24" viewBox="0 0 24 24" fill="none" xmlns="http://www.w3.org/2000/svg">
<path d="M11.5 6.35138C13.5026 6.35138 13.7398 6.359 14.5306 6.39508C15.2619 6.42846 15.659 6.55064 15.9233 6.65332C16.2733 6.78937 16.5232 6.95193 16.7856 7.21436C17.0481 7.47679 17.2106 7.72666 17.3467 8.07671C17.4494 8.34102 17.5715 8.73814 17.6049 9.46936C17.641 10.2602 17.6486 10.4974 17.6486 12.5C17.6486 14.5026 17.641 14.7398 17.6049 15.5306C17.5715 16.2619 17.4494 16.659 17.3467 16.9233C17.2106 17.2734 17.0481 17.5232 16.7856 17.7857C16.5232 18.0481 16.2733 18.2107 15.9233 18.3467C15.659 18.4494 15.2619 18.5716 14.5306 18.6049C13.7399 18.641 13.5027 18.6487 11.5 18.6487C9.49727 18.6487 9.26008 18.641 8.46936 18.6049C7.73811 18.5716 7.34099 18.4494 7.07671 18.3467C6.72663 18.2107 6.47676 18.0481 6.21433 17.7857C5.9519 17.5232 5.78934 17.2734 5.65332 16.9233C5.55061 16.659 5.42843 16.2619 5.39505 15.5307C5.35897 14.7398 5.35135 14.5026 5.35135 12.5C5.35135 10.4974 5.35897 10.2602 5.39505 9.46939C5.42843 8.73814 5.55061 8.34102 5.65332 8.07671C5.78934 7.72666 5.9519 7.47679 6.21433 7.21436C6.47676 6.95193 6.72663 6.78937 7.07671 6.65332C7.34099 6.55064 7.73811 6.42846 8.46933 6.39508C9.2602 6.359 9.49739 6.35138 11.5 6.35138ZM11.5 5C9.46309 5 9.20771 5.00863 8.40776 5.04513C7.60944 5.08157 7.06427 5.20834 6.58719 5.39376C6.09399 5.58542 5.67574 5.84187 5.25879 6.25882C4.84184 6.67577 4.58539 7.09402 4.39373 7.58721C4.20831 8.0643 4.08154 8.60947 4.0451 9.40779C4.0086 10.2077 4 10.4631 4 12.5C4 14.5369 4.0086 14.7923 4.0451 15.5922C4.08154 16.3906 4.20831 16.9357 4.39373 17.4128C4.58539 17.906 4.84184 18.3243 5.25879 18.7412C5.67574 19.1582 6.09399 19.4146 6.58719 19.6063C7.06427 19.7917 7.60944 19.9185 8.40776 19.9549C9.20771 19.9914 9.46309 20 11.5 20C13.5369 20 13.7923 19.9914 14.5922 19.9549C15.3905 19.9185 15.9357 19.7917 16.4128 19.6063C16.906 19.4146 17.3242 19.1582 17.7412 18.7412C18.1581 18.3243 18.4146 17.906 18.6062 17.4128C18.7917 16.9357 18.9184 16.3906 18.9549 15.5922C18.9914 14.7923 19 14.5369 19 12.5C19 10.4631 18.9914 10.2077 18.9549 9.40779C18.9184 8.60947 18.7917 8.0643 18.6062 7.58721C18.4146 7.09402 18.1581 6.67577 17.7412 6.25882C17.3242 5.84187 16.906 5.58542 16.4128 5.39376C15.9357 5.20834 15.3905 5.08157 14.5922 5.04513C13.7923 5.00863 13.5369 5 11.5 5ZM11.5 8.64865C9.37295 8.64865 7.64862 10.373 7.64862 12.5C7.64862 14.6271 9.37295 16.3514 11.5 16.3514C13.627 16.3514 15.3513 14.6271 15.3513 12.5C15.3513 10.373 13.627 8.64865 11.5 8.64865ZM11.5 15C10.1193 15 8.99997 13.8807 8.99997 12.5C8.99997 11.1193 10.1193 10 11.5 10C12.8807 10 14 11.1193 14 12.5C14 13.8807 12.8807 15 11.5 15ZM16.4035 8.49649C16.4035 8.99355 16.0006 9.39651 15.5035 9.39651C15.0064 9.39651 14.6035 8.99355 14.6035 8.49649C14.6035 7.99943 15.0064 7.5965 15.5035 7.5965C16.0006 7.5965 16.4035 7.99943 16.4035 8.49649Z" fill="#594FE0"/>
</svg>
