<svg width="46" height="46" viewBox="0 0 46 46" fill="none" xmlns="http://www.w3.org/2000/svg">
<g filter="url(#filter0_d)">
<circle r="18" transform="matrix(-1 0 0 1 23 21)" fill="white"/>
</g>
<path fill-rule="evenodd" clip-rule="evenodd" d="M15.8748 21.441H30.7732C30.9989 21.441 31.1816 21.2576 31.1816 21.0319C31.1816 20.8055 30.9989 20.6228 30.7732 20.6228H15.8748C15.6485 20.6228 15.4657 20.8055 15.4657 21.0319C15.4657 21.2576 15.6485 21.441 15.8748 21.441Z" fill="#070C2C"/>
<path d="M15.8748 21.441H30.7732C30.9989 21.441 31.1816 21.2576 31.1816 21.0319C31.1816 20.8055 30.9989 20.6228 30.7732 20.6228H15.8748C15.6485 20.6228 15.4657 20.8055 15.4657 21.0319C15.4657 21.2576 15.6485 21.441 15.8748 21.441" stroke="black"/>
<path fill-rule="evenodd" clip-rule="evenodd" d="M22.8815 29.1819C22.9859 29.1819 23.0909 29.1417 23.1706 29.0619C23.3302 28.9024 23.3302 28.6433 23.1706 28.4837L16.3136 21.6267C15.9679 21.281 15.9679 20.7185 16.3136 20.3728L23.1706 13.5158C23.3302 13.3562 23.3302 13.0978 23.1706 12.9383C23.0104 12.7781 22.752 12.7781 22.5918 12.9383L15.7361 19.794C15.0713 20.4587 15.0713 21.5401 15.7361 22.2056L22.5918 29.0619C22.6715 29.1417 22.7772 29.1819 22.8815 29.1819Z" fill="#070C2C"/>
<path d="M22.8815 29.1819C22.9859 29.1819 23.0909 29.1417 23.1706 29.0619C23.3302 28.9024 23.3302 28.6433 23.1706 28.4837L16.3136 21.6267C15.9679 21.281 15.9679 20.7185 16.3136 20.3728L23.1706 13.5158C23.3302 13.3562 23.3302 13.0978 23.1706 12.9383C23.0104 12.7781 22.752 12.7781 22.5918 12.9383L15.7361 19.794C15.0713 20.4587 15.0713 21.5401 15.7361 22.2056L22.5918 29.0619C22.6715 29.1417 22.7772 29.1819 22.8815 29.1819" stroke="black"/>
<defs>
<filter id="filter0_d" x="0" y="0" width="46" height="46" filterUnits="userSpaceOnUse" color-interpolation-filters="sRGB">
<feFlood flood-opacity="0" result="BackgroundImageFix"/>
<feColorMatrix in="SourceAlpha" type="matrix" values="0 0 0 0 0 0 0 0 0 0 0 0 0 0 0 0 0 0 127 0"/>
<feOffset dy="2"/>
<feGaussianBlur stdDeviation="2.5"/>
<feColorMatrix type="matrix" values="0 0 0 0 0 0 0 0 0 0 0 0 0 0 0 0 0 0 0.182665 0"/>
<feBlend mode="normal" in2="BackgroundImageFix" result="effect1_dropShadow"/>
<feBlend mode="normal" in="SourceGraphic" in2="effect1_dropShadow" result="shape"/>
</filter>
</defs>
</svg>
