<svg width="24" height="24" viewBox="0 0 24 24" fill="none" xmlns="http://www.w3.org/2000/svg">
<path d="M5.24751 9.96333H8.35286V19.9357H5.24751V9.96333ZM6.7979 5C7.78861 5 8.59384 5.80524 8.59384 6.79594C8.59384 7.78665 7.78861 8.59384 6.79855 8.59384C6.32198 8.59281 5.86521 8.40308 5.52816 8.06615C5.19111 7.72922 5.00121 7.27252 5 6.79594C5 6.55993 5.04652 6.32623 5.13689 6.10821C5.22727 5.89019 5.35974 5.69212 5.52671 5.52533C5.69369 5.35853 5.8919 5.22629 6.11002 5.13615C6.32814 5.04601 6.56189 4.99974 6.7979 5ZM10.2918 9.96333H13.2646V11.3263H13.3057C13.7198 10.5426 14.7307 9.71582 16.2446 9.71582C19.3832 9.71582 19.9625 11.7815 19.9625 14.4662V19.9364H16.865V15.0854C16.865 13.9294 16.8441 12.4404 15.2545 12.4404C13.6414 12.4404 13.3933 13.7009 13.3933 15.0005V19.9338H10.2964V9.96137L10.2918 9.96333Z" fill="#594FE0"/>
</svg>
