<svg width="46" height="46" viewBox="0 0 46 46" fill="none" xmlns="http://www.w3.org/2000/svg">
<g filter="url(#filter0_d)">
<circle cx="23" cy="21" r="18" fill="white"/>
</g>
<path fill-rule="evenodd" clip-rule="evenodd" d="M30.1252 21.441H15.2268C15.0011 21.441 14.8184 21.2576 14.8184 21.0319C14.8184 20.8055 15.0011 20.6228 15.2268 20.6228H30.1252C30.3515 20.6228 30.5343 20.8055 30.5343 21.0319C30.5343 21.2576 30.3515 21.441 30.1252 21.441Z" fill="#070C2C"/>
<path d="M30.1252 21.441H15.2268C15.0011 21.441 14.8184 21.2576 14.8184 21.0319C14.8184 20.8055 15.0011 20.6228 15.2268 20.6228H30.1252C30.3515 20.6228 30.5343 20.8055 30.5343 21.0319C30.5343 21.2576 30.3515 21.441 30.1252 21.441" stroke="black"/>
<path fill-rule="evenodd" clip-rule="evenodd" d="M23.1187 29.1819C23.0144 29.1819 22.9094 29.1417 22.8296 29.0619C22.6701 28.9024 22.6701 28.6433 22.8296 28.4837L29.6867 21.6267C30.0323 21.281 30.0323 20.7185 29.6867 20.3728L22.8296 13.5158C22.6701 13.3562 22.6701 13.0978 22.8296 12.9383C22.9898 12.7781 23.2483 12.7781 23.4085 12.9383L30.2642 19.794C30.9289 20.4587 30.9289 21.5401 30.2642 22.2056L23.4085 29.0619C23.3287 29.1417 23.223 29.1819 23.1187 29.1819Z" fill="#070C2C"/>
<path d="M23.1187 29.1819C23.0144 29.1819 22.9094 29.1417 22.8296 29.0619C22.6701 28.9024 22.6701 28.6433 22.8296 28.4837L29.6867 21.6267C30.0323 21.281 30.0323 20.7185 29.6867 20.3728L22.8296 13.5158C22.6701 13.3562 22.6701 13.0978 22.8296 12.9383C22.9898 12.7781 23.2483 12.7781 23.4085 12.9383L30.2642 19.794C30.9289 20.4587 30.9289 21.5401 30.2642 22.2056L23.4085 29.0619C23.3287 29.1417 23.223 29.1819 23.1187 29.1819" stroke="black"/>
<defs>
<filter id="filter0_d" x="0" y="0" width="46" height="46" filterUnits="userSpaceOnUse" color-interpolation-filters="sRGB">
<feFlood flood-opacity="0" result="BackgroundImageFix"/>
<feColorMatrix in="SourceAlpha" type="matrix" values="0 0 0 0 0 0 0 0 0 0 0 0 0 0 0 0 0 0 127 0"/>
<feOffset dy="2"/>
<feGaussianBlur stdDeviation="2.5"/>
<feColorMatrix type="matrix" values="0 0 0 0 0 0 0 0 0 0 0 0 0 0 0 0 0 0 0.182665 0"/>
<feBlend mode="normal" in2="BackgroundImageFix" result="effect1_dropShadow"/>
<feBlend mode="normal" in="SourceGraphic" in2="effect1_dropShadow" result="shape"/>
</filter>
</defs>
</svg>
