<svg width="24" height="24" viewBox="0 0 24 24" fill="none" xmlns="http://www.w3.org/2000/svg">
<mask id="mask0" mask-type="alpha" maskUnits="userSpaceOnUse" x="11" y="0" width="5" height="7">
<path fill-rule="evenodd" clip-rule="evenodd" d="M11.2383 0H15.25V6.8241H11.2383V0Z" fill="white"/>
</mask>
<g mask="url(#mask0)">
<path fill-rule="evenodd" clip-rule="evenodd" d="M14.6495 6.82425C14.4965 6.82425 14.3425 6.76525 14.2255 6.64825L11.4145 3.83625C11.1795 3.60125 11.1795 3.22225 11.4145 2.98825L14.2255 0.17625C14.4605 -0.05875 14.8395 -0.05875 15.0745 0.17625C15.3085 0.41025 15.3085 0.79025 15.0745 1.02425L12.6865 3.41225L15.0745 5.80025C15.3085 6.03425 15.3085 6.41425 15.0745 6.64825C14.9575 6.76525 14.8035 6.82425 14.6495 6.82425" fill="#283862"/>
</g>
<path fill-rule="evenodd" clip-rule="evenodd" d="M12.9013 24.0008C7.02128 24.0008 2.23828 19.2178 2.23828 13.3368C2.23828 13.0058 2.50528 12.7368 2.83828 12.7368C3.17028 12.7368 3.43728 13.0058 3.43728 13.3368C3.43728 18.5558 7.68228 22.8008 12.9013 22.8008C18.1203 22.8008 22.3653 18.5558 22.3653 13.3368C22.3653 8.11883 18.1203 3.87383 12.9013 3.87383C12.5693 3.87383 12.3013 3.60483 12.3013 3.27283C12.3013 2.94183 12.5693 2.67383 12.9013 2.67383C18.7823 2.67383 23.5653 7.45683 23.5653 13.3368C23.5653 19.2178 18.7823 24.0008 12.9013 24.0008" fill="#283862"/>
<path fill-rule="evenodd" clip-rule="evenodd" d="M3.006 11.1414C2.562 11.1414 2.199 11.5024 2.199 11.9474C2.199 12.3914 2.562 12.7534 3.006 12.7534C3.45 12.7534 3.812 12.3914 3.812 11.9474C3.812 11.5024 3.45 11.1414 3.006 11.1414M3.006 13.9534C1.9 13.9534 1 13.0534 1 11.9474C1 10.8414 1.9 9.94141 3.006 9.94141C4.111 9.94141 5.012 10.8414 5.012 11.9474C5.012 13.0534 4.111 13.9534 3.006 13.9534" fill="#283862"/>
<path d="M10.517 16.8V11.58L9.5 11.814V11.112L10.895 10.5H11.507V16.8H10.517Z" fill="#283862"/>
<path d="M15.433 16.908C14.989 16.908 14.605 16.83 14.281 16.674C13.957 16.512 13.699 16.293 13.507 16.017C13.321 15.735 13.207 15.417 13.165 15.063H14.101C14.161 15.363 14.311 15.612 14.551 15.81C14.791 16.002 15.088 16.098 15.442 16.098C15.706 16.098 15.934 16.035 16.126 15.909C16.318 15.777 16.468 15.603 16.576 15.387C16.684 15.171 16.738 14.928 16.738 14.658C16.738 14.232 16.618 13.893 16.378 13.641C16.138 13.383 15.835 13.254 15.469 13.254C15.157 13.254 14.89 13.329 14.668 13.479C14.446 13.623 14.284 13.806 14.182 14.028H13.273L13.813 10.5H17.215V11.337H14.533L14.209 13.02C14.347 12.864 14.536 12.735 14.776 12.633C15.022 12.525 15.298 12.471 15.604 12.471C16.03 12.471 16.396 12.57 16.702 12.768C17.008 12.96 17.242 13.221 17.404 13.551C17.572 13.881 17.656 14.247 17.656 14.649C17.656 15.069 17.566 15.45 17.386 15.792C17.206 16.134 16.948 16.407 16.612 16.611C16.282 16.809 15.889 16.908 15.433 16.908Z" fill="#283862"/>
</svg>
