<svg width="24" height="24" viewBox="0 0 24 24" fill="none" xmlns="http://www.w3.org/2000/svg">
<mask id="mask0" mask-type="alpha" maskUnits="userSpaceOnUse" x="9" y="0" width="5" height="7">
<path fill-rule="evenodd" clip-rule="evenodd" d="M9.3125 0H13.3243V6.8238H9.3125V0Z" fill="white"/>
</mask>
<g mask="url(#mask0)">
<path fill-rule="evenodd" clip-rule="evenodd" d="M9.912 6.82425C9.759 6.82425 9.605 6.76525 9.488 6.64825C9.254 6.41425 9.254 6.03425 9.488 5.80025L11.876 3.41225L9.488 1.02425C9.254 0.79025 9.254 0.41025 9.488 0.17625C9.723 -0.05875 10.102 -0.05875 10.337 0.17625L13.148 2.98825C13.383 3.22225 13.383 3.60225 13.148 3.83725L10.337 6.64825C10.22 6.76525 10.065 6.82425 9.912 6.82425" fill="#283862"/>
</g>
<path d="M8.517 16.8V11.58L7.5 11.814V11.112L8.895 10.5H9.507V16.8H8.517Z" fill="#283862"/>
<path d="M13.433 16.908C12.989 16.908 12.605 16.83 12.281 16.674C11.957 16.512 11.699 16.293 11.507 16.017C11.321 15.735 11.207 15.417 11.165 15.063H12.101C12.161 15.363 12.311 15.612 12.551 15.81C12.791 16.002 13.088 16.098 13.442 16.098C13.706 16.098 13.934 16.035 14.126 15.909C14.318 15.777 14.468 15.603 14.576 15.387C14.684 15.171 14.738 14.928 14.738 14.658C14.738 14.232 14.618 13.893 14.378 13.641C14.138 13.383 13.835 13.254 13.469 13.254C13.157 13.254 12.89 13.329 12.668 13.479C12.446 13.623 12.284 13.806 12.182 14.028H11.273L11.813 10.5H15.215V11.337H12.533L12.209 13.02C12.347 12.864 12.536 12.735 12.776 12.633C13.022 12.525 13.298 12.471 13.604 12.471C14.03 12.471 14.396 12.57 14.702 12.768C15.008 12.96 15.242 13.221 15.404 13.551C15.572 13.881 15.656 14.247 15.656 14.649C15.656 15.069 15.566 15.45 15.386 15.792C15.206 16.134 14.948 16.407 14.612 16.611C14.282 16.809 13.889 16.908 13.433 16.908Z" fill="#283862"/>
<path fill-rule="evenodd" clip-rule="evenodd" d="M11.664 23.9989C5.783 23.9989 1 19.2159 1 13.3349C1 7.45487 5.783 2.67188 11.664 2.67188C11.995 2.67188 12.264 2.93987 12.264 3.27087C12.264 3.60287 11.995 3.87188 11.664 3.87188C6.445 3.87188 2.199 8.11688 2.199 13.3349C2.199 18.5539 6.445 22.7999 11.664 22.7999C16.882 22.7999 21.127 18.5539 21.127 13.3349C21.127 13.0039 21.395 12.7349 21.727 12.7349C22.059 12.7349 22.327 13.0039 22.327 13.3349C22.327 19.2159 17.544 23.9989 11.664 23.9989" fill="#283862"/>
<mask id="mask1" mask-type="alpha" maskUnits="userSpaceOnUse" x="19" y="9" width="5" height="5">
<path fill-rule="evenodd" clip-rule="evenodd" d="M19.5508 9.93945H23.5627V13.9525H19.5508V9.93945Z" fill="white"/>
</mask>
<g mask="url(#mask1)">
<path fill-rule="evenodd" clip-rule="evenodd" d="M21.5568 11.1395C21.1128 11.1395 20.7508 11.5005 20.7508 11.9455C20.7508 12.3905 21.1128 12.7515 21.5568 12.7515C22.0008 12.7515 22.3628 12.3905 22.3628 11.9455C22.3628 11.5005 22.0008 11.1395 21.5568 11.1395M21.5568 13.9525C20.4508 13.9525 19.5508 13.0515 19.5508 11.9455C19.5508 10.8395 20.4508 9.93945 21.5568 9.93945C22.6618 9.93945 23.5628 10.8395 23.5628 11.9455C23.5628 13.0515 22.6618 13.9525 21.5568 13.9525" fill="#283862"/>
</g>
</svg>
