<svg width="24" height="24" viewBox="0 0 24 24" fill="none" xmlns="http://www.w3.org/2000/svg">
<path d="M12.8162 5.0126C13.6307 5 14.4406 5.00747 15.2495 5C15.2985 5.95266 15.6411 6.92306 16.3384 7.59659C17.0344 8.28693 18.0188 8.60293 18.9766 8.70982V11.2159C18.079 11.1865 17.1772 10.9998 16.3627 10.6133C16.008 10.4527 15.6775 10.2459 15.354 10.0345C15.3498 11.853 15.3615 13.6692 15.3424 15.4802C15.2938 16.3502 15.0067 17.2161 14.5008 17.933C13.6867 19.1265 12.2739 19.9046 10.8227 19.9289C9.93259 19.9798 9.04341 19.7371 8.28492 19.2899C7.02793 18.5487 6.14342 17.1918 6.01459 15.7355C5.99965 15.4242 5.99452 15.1133 6.00712 14.8095C6.11915 13.6253 6.70493 12.4925 7.61418 11.7218C8.64479 10.8242 10.0885 10.3967 11.4402 10.6497C11.4528 11.5715 11.416 12.4925 11.416 13.4143C10.7984 13.2145 10.0768 13.2705 9.53724 13.6454C9.14329 13.9007 8.8441 14.2918 8.6882 14.7343C8.55937 15.0498 8.59625 15.4004 8.60372 15.7355C8.75168 16.7568 9.73375 17.6152 10.7821 17.5223C11.4771 17.5148 12.1432 17.1115 12.5054 16.5211C12.6225 16.3143 12.7537 16.1029 12.7607 15.8597C12.8218 14.7464 12.7976 13.6379 12.805 12.5247C12.8102 10.0158 12.7976 7.51398 12.8167 5.01307L12.8162 5.0126Z" fill="#594FE0"/>
</svg>
