<svg width="24" height="24" viewBox="0 0 24 24" fill="none" xmlns="http://www.w3.org/2000/svg">
<path d="M4 4.5H20V3.5H4V4.5ZM21.5 6V18H22.5V6H21.5ZM20 19.5H4V20.5H20V19.5ZM2.5 18V6H1.5V18H2.5ZM4 9.5H12V8.5H4V9.5ZM12 9.5H20V8.5H12V9.5ZM4 12.5H12V11.5H4V12.5ZM12 12.5H20V11.5H12V12.5ZM4 15.5H12V14.5H4V15.5ZM12 15.5H20V14.5H12V15.5ZM4 19.5C3.17157 19.5 2.5 18.8284 2.5 18H1.5C1.5 19.3807 2.61929 20.5 4 20.5V19.5ZM21.5 18C21.5 18.8284 20.8284 19.5 20 19.5V20.5C21.3807 20.5 22.5 19.3807 22.5 18H21.5ZM20 4.5C20.8284 4.5 21.5 5.17157 21.5 6H22.5C22.5 4.61929 21.3807 3.5 20 3.5V4.5ZM4 3.5C2.61929 3.5 1.5 4.61929 1.5 6H2.5C2.5 5.17157 3.17157 4.5 4 4.5V3.5Z" fill="#C4CAD3"/>
</svg>
