<svg width="100" height="100" viewBox="0 0 100 100" fill="none" xmlns="http://www.w3.org/2000/svg">
<g filter="url(#filter0_d)">
<path d="M51.1349 9.23566C58.0897 9.89931 81.9538 34.4669 82.5273 37.8619C83.1008 41.2569 50.6368 76.2122 46.3884 75.5238C42.14 74.8354 14.5607 38.0735 14.6284 33.0005C14.6962 27.9275 46.0805 8.75626 51.1349 9.23566Z" fill="url(#paint0_linear)"/>
<path d="M22.3305 18.3594C22.3305 20.9816 18.088 57.2988 18.694 72.4503C35.2092 74.8745 72.5121 75.8139 73.2394 74.723C74.1485 73.3594 77.7847 26.9958 77.7847 21.5412C77.7847 18.6664 22.3305 11.9958 22.3305 18.3594Z" fill="white"/>
<path d="M14.6292 33.0004C14.6292 33.0004 8.84016 79.3278 11.2029 80.9275C13.5657 82.5271 77.7955 86.0305 80.5637 83.2559C83.332 80.4814 84.0562 38.9379 82.5281 37.8618C80.9999 36.7857 50.4358 59.893 47.4999 59.7479C44.5641 59.6029 17.8809 32.5885 14.6292 33.0004Z" fill="url(#paint1_linear)"/>
<path d="M11.2019 80.9276C11.2019 80.9276 39.5196 54.7603 47.1689 55.2267C54.8181 55.6932 80.0834 80.8778 80.5627 83.256C81.0421 85.6342 16.6197 83.1292 11.2019 80.9276Z" fill="url(#paint2_linear)"/>
</g>
<circle cx="49" cy="36" r="10" fill="#FF5D29"/>
<path d="M53.9099 35.2396C53.9099 35.8215 53.8184 36.3545 53.6353 36.8387C53.4521 37.3189 53.1938 37.6932 52.8601 37.9618C52.5305 38.2303 52.148 38.3646 51.7126 38.3646C51.3912 38.3646 51.1125 38.2792 50.8765 38.1083C50.703 37.9826 50.5627 37.8751 50.3271 37.4125C50.2502 37.5626 49.8816 37.9679 49.5886 38.1266C49.2957 38.2853 48.9661 38.3646 48.5999 38.3646C47.9366 38.3646 47.4137 38.151 47.0312 37.7238C46.6528 37.2965 46.4636 36.7187 46.4636 35.9904C46.4636 35.1521 46.7159 34.4726 47.2205 33.9518C47.725 33.4269 48.4025 33.1644 49.2529 33.1644C49.5622 33.1644 49.904 33.1929 50.2783 33.2499C51.8579 33.4707 51.2157 34.9494 51.1511 36.3138V36.4603C51.1511 37.1114 51.3627 37.4369 51.7859 37.4369C52.1073 37.4369 52.3617 37.2294 52.5488 36.8143C52.7401 36.3993 52.8357 35.8703 52.8357 35.2274C52.8357 34.5316 52.6933 33.9213 52.4084 33.3964C52.1236 32.8674 51.7188 32.4605 51.1938 32.1757C50.6689 31.8908 50.0667 31.7484 49.3872 31.7484C48.5205 31.7484 47.7657 31.9274 47.1228 32.2855C46.484 32.6436 45.9957 33.1563 45.658 33.8236C45.3202 34.4869 45.1514 35.2579 45.1514 36.1368C45.1514 37.3169 45.4667 38.2242 46.0974 38.859C46.7281 39.4938 47.6335 39.8112 48.8135 39.8112C50.2389 39.8112 51.6272 38.5847 51.6272 40.2628C50.7727 40.6128 49.8429 40.7877 48.8379 40.7877C47.3324 40.7877 46.1584 40.3829 45.3162 39.5731C44.4739 38.7593 44.0527 37.6261 44.0527 36.1735C44.0527 35.1115 44.2806 34.1674 44.7363 33.3414C45.1921 32.5114 45.8228 31.8766 46.6284 31.4371C47.4382 30.9977 48.3537 30.778 49.375 30.778C50.258 30.778 51.0433 30.9611 51.731 31.3273C52.4227 31.6935 52.9578 32.2163 53.3362 32.8959C53.7187 33.5713 53.9099 34.3526 53.9099 35.2396ZM47.6355 36.0148C47.6355 36.9629 48.0078 37.4369 48.7524 37.4369C49.5378 37.4369 49.967 36.8408 50.0403 35.6486C50.0871 34.7153 50.3814 34.0861 49.2896 34.0861C48.7687 34.0861 48.3618 34.259 48.0688 34.6049C47.7799 34.9507 47.6355 35.4207 47.6355 36.0148Z" fill="white"/>
<defs>
<filter id="filter0_d" x="6.63672" y="9.22681" width="80.6778" height="83.0647" filterUnits="userSpaceOnUse" color-interpolation-filters="sRGB">
<feFlood flood-opacity="0" result="BackgroundImageFix"/>
<feColorMatrix in="SourceAlpha" type="matrix" values="0 0 0 0 0 0 0 0 0 0 0 0 0 0 0 0 0 0 127 0"/>
<feOffset dy="4"/>
<feGaussianBlur stdDeviation="2"/>
<feColorMatrix type="matrix" values="0 0 0 0 0.354167 0 0 0 0 0.354167 0 0 0 0 0.354167 0 0 0 0.2 0"/>
<feBlend mode="normal" in2="BackgroundImageFix" result="effect1_dropShadow"/>
<feBlend mode="normal" in="SourceGraphic" in2="effect1_dropShadow" result="shape"/>
</filter>
<linearGradient id="paint0_linear" x1="52.0649" y1="23.0749" x2="47.3483" y2="74.0455" gradientUnits="userSpaceOnUse">
<stop stop-color="#594FE0"/>
<stop offset="0.927083" stop-color="#594FE0"/>
<stop offset="1" stop-color="#594FE0"/>
</linearGradient>
<linearGradient id="paint1_linear" x1="4.3507" y1="64.9693" x2="86.4761" y2="63.2271" gradientUnits="userSpaceOnUse">
<stop offset="0.120326" stop-color="#8279FD"/>
<stop offset="0.515625" stop-color="#594FE0"/>
<stop offset="0.948892" stop-color="#857DFA"/>
</linearGradient>
<linearGradient id="paint2_linear" x1="52.7155" y1="56.6166" x2="47.7185" y2="86.589" gradientUnits="userSpaceOnUse">
<stop stop-color="#837BF8"/>
<stop offset="1" stop-color="#594FE0"/>
</linearGradient>
</defs>
</svg>
